<svg xmlns="http://www.w3.org/2000/svg" width="22" height="22" viewBox="0 0 22 22"><defs><style>.a{fill:#ff13dc;opacity:0;}.b{fill:#6e6e6e;}</style></defs><rect class="a" width="22" height="22"/><path class="b" d="M15.743,4.843,11,9.586,6.257,4.843a.5.5,0,0,0-.707,0l-.707.707a.5.5,0,0,0,0,.707L9.586,11,4.843,15.743a.5.5,0,0,0,0,.707l.707.707a.5.5,0,0,0,.707,0L11,12.414l4.743,4.743a.5.5,0,0,0,.707,0l.707-.707a.5.5,0,0,0,0-.707L12.414,11l4.743-4.743a.5.5,0,0,0,0-.707l-.707-.707a.5.5,0,0,0-.707,0Z"/></svg>