<svg id="Group_156140" data-name="Group 156140" xmlns="http://www.w3.org/2000/svg" width="18" height="18" viewBox="0 0 18 18">
  <rect id="Canvas" width="18" height="18" fill="#ff13dc" opacity="0"/>
  <path id="Path_38" data-name="Path 38" d="M16.5,12h-1a.5.5,0,0,0-.5.5V15H3V12.5a.5.5,0,0,0-.5-.5h-1a.5.5,0,0,0-.5.5v4a.5.5,0,0,0,.5.5h15a.5.5,0,0,0,.5-.5v-4A.5.5,0,0,0,16.5,12Z" fill="#6e6e6e"/>
  <path id="Path_39" data-name="Path 39" d="M8.825,13.428a.25.25,0,0,0,.35,0L12.9,9.665A.391.391,0,0,0,13,9.4a.4.4,0,0,0-.4-.4H10V1.5A.5.5,0,0,0,9.5,1h-1a.5.5,0,0,0-.5.5V9H5.4a.4.4,0,0,0-.4.4.391.391,0,0,0,.1.263Z" fill="#6e6e6e"/>
</svg>
