<svg id="Group_156226" data-name="Group 156226" xmlns="http://www.w3.org/2000/svg" width="22" height="22" viewBox="0 0 22 22">
  <rect id="Canvas" width="22" height="22" fill="#ff13dc" opacity="0"/>
  <path id="Path_33899" data-name="Path 33899" d="M19.5,14h-1a.5.5,0,0,0-.5.5V18H4V14.5a.5.5,0,0,0-.5-.5h-1a.5.5,0,0,0-.5.5v5a.5.5,0,0,0,.5.5h17a.5.5,0,0,0,.5-.5v-5A.5.5,0,0,0,19.5,14Z" fill="#6e6e6e"/>
  <path id="Path_33900" data-name="Path 33900" d="M10.825,15.428a.249.249,0,0,0,.35,0L14.9,11.666A.389.389,0,0,0,15,11.4a.4.4,0,0,0-.4-.4H12V2.5a.5.5,0,0,0-.5-.5h-1a.5.5,0,0,0-.5.5V11H7.4a.4.4,0,0,0-.4.4.389.389,0,0,0,.1.264Z" fill="#6e6e6e"/>
</svg>
