<svg id="Group_156145" data-name="Group 156145" xmlns="http://www.w3.org/2000/svg" width="18" height="18" viewBox="0 0 18 18">
  <rect id="Canvas" width="18" height="18" fill="#ff13dc" opacity="0"/>
  <path id="Path_46" data-name="Path 46" d="M7.4,13.5A6.573,6.573,0,0,1,9,9.294c1.041-1.347,5.866-7.486,5.866-7.486A.5.5,0,0,0,14.473,1H.527a.5.5,0,0,0-.394.809L6,9.295V16.95a.5.5,0,0,0,.84.413l1.169-1.22A6.065,6.065,0,0,1,7.4,13.5Z" fill="#6e6e6e"/>
  <path id="Path_47" data-name="Path 47" d="M13.5,9.05a4.45,4.45,0,1,0,4.45,4.45A4.45,4.45,0,0,0,13.5,9.05Zm-1.169,7.156-2.064-2.063a.25.25,0,0,1,0-.354l.518-.518a.25.25,0,0,1,.354,0L12.5,14.637l3.053-3.053a.25.25,0,0,1,.354,0l.521.521a.25.25,0,0,1,0,.354l-3.75,3.75a.25.25,0,0,1-.351,0Z" fill="#6e6e6e"/>
</svg>
