<svg xmlns="http://www.w3.org/2000/svg" width="18" height="18" viewBox="0 0 18 18"><defs><style>.a{fill:#ff13dc;opacity:0;}.b{fill:#6e6e6e;}</style></defs><rect class="a" width="18" height="18"/><path class="b" d="M16.337,10H15.39a.608.608,0,0,0-.581.469A5.723,5.723,0,0,1,5.25,13.006L4.9,12.659l1.977-1.977A.392.392,0,0,0,7,10.4a.4.4,0,0,0-.377-.4H1.25a.25.25,0,0,0-.25.25v5.375A.4.4,0,0,0,1.4,16a.391.391,0,0,0,.28-.118l1.809-1.809.178.179a8.09,8.09,0,0,0,3.642,2.165,7.715,7.715,0,0,0,9.438-5.474q.047-.178.086-.358a.5.5,0,0,0-.5-.585Z"/><path class="b" d="M16.6,2a.39.39,0,0,0-.28.118L14.509,3.927l-.178-.177a8.09,8.09,0,0,0-3.642-2.165A7.715,7.715,0,0,0,1.253,7.061q-.047.176-.085.354a.5.5,0,0,0,.5.585H2.61a.608.608,0,0,0,.581-.469A5.723,5.723,0,0,1,12.75,4.994l.346.346L11.118,7.318A.392.392,0,0,0,11,7.6a.4.4,0,0,0,.377.4H16.75A.25.25,0,0,0,17,7.75V2.377A.4.4,0,0,0,16.6,2Z"/></svg>