<svg id="Group_156225" data-name="Group 156225" xmlns="http://www.w3.org/2000/svg" width="22" height="22" viewBox="0 0 22 22">
  <rect id="Canvas" width="22" height="22" fill="#ff13dc" opacity="0"/>
  <path id="Path_33897" data-name="Path 33897" d="M19.592,12H18.477a.6.6,0,0,0-.56.4A6.988,6.988,0,0,1,11.356,17a7.36,7.36,0,0,1-5.419-2.373l1.945-1.945A.393.393,0,0,0,8,12.4a.4.4,0,0,0-.377-.4H2.248A.249.249,0,0,0,2,12.248v5.375A.4.4,0,0,0,2.4,18a.393.393,0,0,0,.28-.118l1.829-1.829A9.348,9.348,0,0,0,11.356,19a8.99,8.99,0,0,0,8.629-6.492A.4.4,0,0,0,20,12.4.409.409,0,0,0,19.592,12Z" fill="#6e6e6e"/>
  <path id="Path_33898" data-name="Path 33898" d="M19.6,3a.393.393,0,0,0-.28.118L17.489,4.947A9.348,9.348,0,0,0,10.644,2,8.99,8.99,0,0,0,2.015,8.492.393.393,0,0,0,2,8.6a.409.409,0,0,0,.408.4H3.523a.6.6,0,0,0,.56-.4A6.988,6.988,0,0,1,10.644,4a7.363,7.363,0,0,1,5.419,2.372L14.118,8.318A.392.392,0,0,0,14,8.6a.4.4,0,0,0,.377.4h5.375A.25.25,0,0,0,20,8.752V3.377A.4.4,0,0,0,19.6,3Z" fill="#6e6e6e"/>
</svg>
