<svg xmlns="http://www.w3.org/2000/svg" width="32.149" height="36.042" viewBox="0 0 32.149 36.042"><defs><style>.a,.b{fill:#fff;}.a{fill-rule:evenodd;}</style></defs><g transform="translate(0 0)"><path class="a" d="M70.144,50.879,63.112,54.9l-7.158,4.144V53.893L60.851,51l4.772-2.763ZM54.07,59.042,47.037,54.9l-7.158-4.019L44.4,48.242,49.3,51l4.772,2.888ZM39,49.247V32.8l4.521,2.637V46.609Zm.879-17.958,7.158-4.144L54.07,23v5.274L49.3,31.037,44.4,33.8ZM55.954,23l7.158,4.144,7.033,4.144L65.623,33.8l-4.772-2.763-4.9-2.763Zm15.2,9.8V49.247l-4.521-2.637V35.433Z" transform="translate(-39 -23)"/><path class="b" d="M103.842,93.958l-4.27,2.386h0L95.3,98.856v-1l3.767-2.26h0l3.893-2.135Zm-10.423,4.9-4.27-2.512L85,93.958l.753-.5,3.893,2.135,3.767,2.26ZM84,92.326v-4.9h0v-4.9l.879.5v4.4h0v4.4ZM85,80.9l4.144-2.512h0L93.419,76v1L89.651,79.14h0L85.758,81.4ZM95.3,76l4.27,2.386,4.27,2.512-.879.5L99.07,79.14,95.3,77Zm9.419,6.53v4.9h0v4.9l-.879-.5v-4.4h0v-4.4Z" transform="translate(-78.349 -69.344)"/></g></svg>