<svg id="Group_156214" data-name="Group 156214" xmlns="http://www.w3.org/2000/svg" width="22" height="22" viewBox="0 0 22 22">
  <rect id="Canvas" width="22" height="22" fill="#ff13dc" opacity="0"/>
  <path id="Path_33893" data-name="Path 33893" d="M20,6.5H17v-4a.5.5,0,0,0-.5-.5H5.5a.5.5,0,0,0-.5.5v4H2a.5.5,0,0,0-.5.5v8a.5.5,0,0,0,.5.5H3.5V19a.5.5,0,0,0,.5.5H18a.5.5,0,0,0,.5-.5V15.5H20a.5.5,0,0,0,.5-.5V7A.5.5,0,0,0,20,6.5ZM6.5,3.5h9v3h-9ZM17,18H5V12.5H17Z" fill="#6e6e6e"/>
  <rect id="Rectangle_140360" data-name="Rectangle 140360" width="8" height="1" transform="translate(7 13.5)" fill="#6e6e6e"/>
  <rect id="Rectangle_140361" data-name="Rectangle 140361" width="8" height="1" transform="translate(7 15.5)" fill="#6e6e6e"/>
</svg>
