<svg id="Group_156142" data-name="Group 156142" xmlns="http://www.w3.org/2000/svg" width="18" height="18" viewBox="0 0 18 18">
  <rect id="Canvas" width="18" height="18" fill="#ff13dc" opacity="0"/>
  <path id="Path_42" data-name="Path 42" d="M17.5,5H15V1.5a.5.5,0,0,0-.5-.5H3.5a.5.5,0,0,0-.5.5V5H.5a.5.5,0,0,0-.5.5v7a.5.5,0,0,0,.5.5H2v3.5a.5.5,0,0,0,.5.5h13a.5.5,0,0,0,.5-.5V13h1.5a.5.5,0,0,0,.5-.5v-7A.5.5,0,0,0,17.5,5ZM4,2H14V5H4ZM15,16H3V10H15Z" fill="#6e6e6e"/>
  <rect id="Rectangle_140352" data-name="Rectangle 140352" width="8" height="1" transform="translate(5 13)" fill="#6e6e6e"/>
  <rect id="Rectangle_140353" data-name="Rectangle 140353" width="8" height="1" transform="translate(5 11)" fill="#6e6e6e"/>
</svg>
