<svg id="Group_156213" data-name="Group 156213" xmlns="http://www.w3.org/2000/svg" width="22" height="22" viewBox="0 0 22 22">
  <rect id="Canvas" width="22" height="22" fill="#ff13dc" opacity="0"/>
  <path id="Path_33891" data-name="Path 33891" d="M6.25,5.5H3a.5.5,0,0,0-.5.5V18a.5.5,0,0,0,.5.5H19a.5.5,0,0,0,.5-.5V6a.5.5,0,0,0-.5-.5H15.75a.25.25,0,0,0-.25.25v1a.25.25,0,0,0,.25.25H18V17H4V7H6.25a.25.25,0,0,0,.25-.25v-1A.25.25,0,0,0,6.25,5.5Z" fill="#6e6e6e"/>
  <path id="Path_33892" data-name="Path 33892" d="M11.186.7a.251.251,0,0,0-.371,0L7.77,4.083a.25.25,0,0,0,.186.417H10v5.75a.25.25,0,0,0,.25.25h1.5a.25.25,0,0,0,.25-.25V4.5h2.134a.25.25,0,0,0,.184-.42Z" fill="#6e6e6e"/>
</svg>
