<svg id="Group_156141" data-name="Group 156141" xmlns="http://www.w3.org/2000/svg" width="18" height="18" viewBox="0 0 18 18">
  <rect id="Canvas" width="18" height="18" fill="#ff13dc" opacity="0"/>
  <path id="Path_40" data-name="Path 40" d="M16.5,5h-3a.5.5,0,0,0-.5.5v1a.5.5,0,0,0,.5.5H15v8H3V7H4.5A.5.5,0,0,0,5,6.5v-1A.5.5,0,0,0,4.5,5h-3a.5.5,0,0,0-.5.5v11a.5.5,0,0,0,.5.5h15a.5.5,0,0,0,.5-.5V5.5A.5.5,0,0,0,16.5,5Z" fill="#6e6e6e"/>
  <path id="Path_41" data-name="Path 41" d="M5.4,4H8V9.5a.5.5,0,0,0,.5.5h1a.5.5,0,0,0,.5-.5V4h2.6a.4.4,0,0,0,.4-.4.394.394,0,0,0-.1-.263L9.175.072a.25.25,0,0,0-.35,0L5.1,3.334A.394.394,0,0,0,5,3.6a.4.4,0,0,0,.4.4Z" fill="#6e6e6e"/>
</svg>
